<svg xmlns="http://www.w3.org/2000/svg" width="40" height="40" viewBox="0 0 40 40">
  <g id="Icon" transform="translate(-223 -126)">
    <g id="add" transform="translate(223 126)">
      <g id="Group_87" data-name="Group 87">
        <g id="Group_86" data-name="Group 86">
          <path id="Path_747" data-name="Path 747" d="M26.23.89A20.474,20.474,0,0,0,20.241,0,20.235,20.235,0,0,0,5.928,5.856,19.741,19.741,0,0,0,0,19.994,20,20,0,0,0,13.767,38.943a.6.6,0,0,0,.753-.368.585.585,0,0,0-.373-.744A18.828,18.828,0,0,1,1.188,19.994,18.582,18.582,0,0,1,6.769,6.686,19.047,19.047,0,0,1,20.241,1.174a19.274,19.274,0,0,1,5.638.838.6.6,0,0,0,.743-.387A.586.586,0,0,0,26.23.89Z" transform="translate(0)" fill="#fff"/>
        </g>
      </g>
      <g id="Group_89" data-name="Group 89" transform="translate(15.463 1.793)">
        <g id="Group_88" data-name="Group 88">
          <path id="Path_748" data-name="Path 748" d="M222.918,29.972a20.2,20.2,0,0,0-8.5-7.247.6.6,0,0,0-.788.287.584.584,0,0,0,.291.778,19.02,19.02,0,0,1,8,6.823,18.643,18.643,0,0,1-2.49,23.581,19.05,19.05,0,0,1-13.472,5.511,19.45,19.45,0,0,1-3.591-.333.593.593,0,0,0-.695.466.587.587,0,0,0,.472.686,20.66,20.66,0,0,0,3.813.354,20.237,20.237,0,0,0,14.312-5.855,19.806,19.806,0,0,0,2.645-25.052Z" transform="translate(-201.665 -22.671)" fill="#fff"/>
        </g>
      </g>
      <g id="Group_91" data-name="Group 91" transform="translate(11.785 11.785)">
        <g id="Group_90" data-name="Group 90">
          <path id="Path_749" data-name="Path 749" d="M167.931,159.715H160.9v-7.027a.594.594,0,1,0-1.188,0v7.027h-7.027a.594.594,0,1,0,0,1.188h7.027v7.027a.594.594,0,1,0,1.188,0V160.9h7.027a.594.594,0,1,0,0-1.188Z" transform="translate(-152.095 -152.094)" fill="#fff"/>
        </g>
      </g>
    </g>
  </g>
</svg>
