<svg xmlns="http://www.w3.org/2000/svg" width="60" height="60" viewBox="0 0 60 60">
  <g id="Icon" transform="translate(-266 -1108)">
    <g id="review" transform="translate(266 1106.242)">
      <g id="Group_77" data-name="Group 77" transform="translate(11.68 34.395)">
        <g id="Group_76" data-name="Group 76">
          <path id="Path_742" data-name="Path 742" d="M102.457,278.4a2.694,2.694,0,1,0,2.694,2.694A2.7,2.7,0,0,0,102.457,278.4Zm0,3.612a.917.917,0,1,1,.917-.917A.918.918,0,0,1,102.457,282.014Z" transform="translate(-99.762 -278.402)" fill="#2f52e0"/>
        </g>
      </g>
      <g id="Group_79" data-name="Group 79" transform="translate(21.357 45.232)">
        <g id="Group_78" data-name="Group 78">
          <path id="Path_743" data-name="Path 743" d="M200.148,376.722a.888.888,0,0,0-.845-.614h-5.278l-1.631-5.02a.889.889,0,0,0-1.69,0l-1.631,5.02h-5.278a.889.889,0,0,0-.522,1.607l4.27,3.1-1.631,5.02a.889.889,0,0,0,1.367.993l4.27-3.1,4.27,3.1a.889.889,0,0,0,1.367-.993l-1.631-5.02,4.27-3.1A.888.888,0,0,0,200.148,376.722Zm-6.16,3.037a.888.888,0,0,0-.323.993l.985,3.033-2.58-1.874a.9.9,0,0,0-1.044,0l-2.58,1.874.985-3.033a.888.888,0,0,0-.323-.993l-2.58-1.874h3.189a.889.889,0,0,0,.845-.614l.985-3.033.985,3.033a.889.889,0,0,0,.845.614h3.189Z" transform="translate(-182.906 -370.474)" fill="#2f52e0"/>
        </g>
      </g>
      <g id="Group_81" data-name="Group 81" transform="translate(42.714 45.231)">
        <g id="Group_80" data-name="Group 80">
          <path id="Path_744" data-name="Path 744" d="M383.055,376.721a.889.889,0,0,0-.845-.614h-5.278l-1.631-5.02a.889.889,0,0,0-1.69,0l-1.631,5.02H366.7a.889.889,0,0,0-.522,1.607l4.27,3.1-1.631,5.02a.889.889,0,0,0,1.367.993l4.27-3.1,4.27,3.1a.889.889,0,0,0,1.367-.993l-1.631-5.02,4.27-3.1A.888.888,0,0,0,383.055,376.721Zm-6.16,3.038a.888.888,0,0,0-.323.993l.985,3.033-2.58-1.874a.888.888,0,0,0-1.045,0l-2.58,1.874.985-3.033a.888.888,0,0,0-.323-.993l-2.58-1.874h3.189a.889.889,0,0,0,.845-.614l.985-3.033.985,3.033a.889.889,0,0,0,.845.614h3.189Z" transform="translate(-365.813 -370.473)" fill="#2f52e0"/>
        </g>
      </g>
      <g id="Group_83" data-name="Group 83" transform="translate(0 45.232)">
        <g id="Group_82" data-name="Group 82" transform="translate(0)">
          <path id="Path_745" data-name="Path 745" d="M17.242,376.722a.889.889,0,0,0-.845-.614H11.119l-1.631-5.02a.889.889,0,0,0-1.69,0l-1.631,5.02H.888a.889.889,0,0,0-.522,1.607l4.27,3.1L3,385.837a.889.889,0,0,0,1.367.993l4.27-3.1,4.27,3.1a.889.889,0,0,0,1.367-.993l-1.631-5.02,4.27-3.1A.888.888,0,0,0,17.242,376.722Zm-6.16,3.037a.888.888,0,0,0-.323.993l.985,3.033-2.58-1.874a.9.9,0,0,0-1.045,0l-2.58,1.874.985-3.033a.888.888,0,0,0-.323-.993l-2.58-1.874H6.812a.889.889,0,0,0,.845-.614l.985-3.033.985,3.033a.889.889,0,0,0,.845.614h3.189Z" transform="translate(0 -370.474)" fill="#2f52e0"/>
        </g>
      </g>
      <g id="Group_85" data-name="Group 85" transform="translate(7.582 1.758)">
        <g id="Group_84" data-name="Group 84" transform="translate(0 0)">
          <path id="Path_746" data-name="Path 746" d="M109.368,23.91a4.035,4.035,0,0,0-2.492-7.164H92.747a16.457,16.457,0,0,0,1.236-4.5c.673-4.766-.344-7.3-1.316-8.579a4.677,4.677,0,0,0-3.2-1.9A1.879,1.879,0,0,0,87.4,3.585c-.164,1.709-.766,6.4-1.628,8.141-2.214,4.479-7.492,7.149-9.122,7.888a3.222,3.222,0,0,0-2.121-.8H67.385a3.281,3.281,0,0,0-3.259,3.3V40.174a3.281,3.281,0,0,0,3.259,3.3h7.141a3.235,3.235,0,0,0,2.424-1.1,8.247,8.247,0,0,0,4.49,1.252h22.955a4.034,4.034,0,0,0,2.987-6.685,4.049,4.049,0,0,0,1.241-6.276,4.049,4.049,0,0,0,.745-6.756ZM74.526,41.693H67.385a1.512,1.512,0,0,1-1.5-1.519V22.114a1.512,1.512,0,0,1,1.5-1.519h7.141a1.488,1.488,0,0,1,1.071.457V40.867a.893.893,0,0,0,.055.308A1.49,1.49,0,0,1,74.526,41.693ZM103.186,24.8h3.691a2.249,2.249,0,0,1,0,4.5h-3.691a.889.889,0,0,0,0,1.777h2.45a2.249,2.249,0,0,1,0,4.5h-3.123a.889.889,0,0,0,0,1.777h1.883a2.25,2.25,0,0,1,0,4.5H81.439a6.445,6.445,0,0,1-3.709-1.076,3.333,3.333,0,0,0,.055-.6V22.114a3.318,3.318,0,0,0-.153-1c2.058-.956,7.328-3.781,9.708-8.6,1.191-2.408,1.784-8.542,1.809-8.8,0-.028,0-.057,0-.085a.1.1,0,0,1,.034-.076.087.087,0,0,1,.072-.023,2.946,2.946,0,0,1,2.014,1.216c.767,1.013,1.558,3.092.971,7.247a11.479,11.479,0,0,1-1.684,5.073.9.9,0,0,0,.68,1.451h15.637a2.25,2.25,0,0,1,0,4.5h-3.691a.889.889,0,0,0,0,1.777Z" transform="translate(-64.126 -1.758)" fill="#2f52e0"/>
        </g>
      </g>
    </g>
  </g>
</svg>
