<?xml version="1.0" encoding="UTF-8"?> <svg xmlns="http://www.w3.org/2000/svg" width="107.872" height="16.8" viewBox="0 0 107.872 16.8"><g id="Group_283" data-name="Group 283" transform="translate(-0.768 -16.2)"><path id="Path_788" data-name="Path 788" d="M4.32,22a.946.946,0,0,1-.66-.228.913.913,0,0,1-.3-.564L.792,5.848A.334.334,0,0,1,.768,5.7a.482.482,0,0,1,.156-.348A.482.482,0,0,1,1.272,5.2H4.416q.7,0,.768.552l1.464,9.072L8.3,9.568A.783.783,0,0,1,9.1,8.92h1.8a.783.783,0,0,1,.792.648L13.344,14.8l1.488-9.048a.644.644,0,0,1,.216-.42.854.854,0,0,1,.528-.132H18.72a.47.47,0,0,1,.36.156.5.5,0,0,1,.144.348v.144l-2.568,15.36a.891.891,0,0,1-.312.564A.957.957,0,0,1,15.7,22H13.272a.872.872,0,0,1-.6-.192.937.937,0,0,1-.288-.432l-2.376-6.648L7.632,21.376a1.147,1.147,0,0,1-.312.432.872.872,0,0,1-.6.192Zm15.672,0a.536.536,0,0,1-.5-.5.728.728,0,0,1,.024-.216L25.1,5.9a.937.937,0,0,1,.96-.7h3.744a.937.937,0,0,1,.96.7L36.36,21.28a.728.728,0,0,1,.024.216.536.536,0,0,1-.5.5H32.76a.833.833,0,0,1-.816-.528l-.864-2.328H24.792l-.864,2.328a.833.833,0,0,1-.816.528ZM25.8,15.544h4.272l-2.136-6.12ZM38.808,22a.615.615,0,0,1-.6-.6V5.824a.626.626,0,0,1,.168-.444.564.564,0,0,1,.432-.18h6.6a7.7,7.7,0,0,1,4.956,1.44A4.912,4.912,0,0,1,52.152,10.7a5.051,5.051,0,0,1-.78,2.856,5.167,5.167,0,0,1-2.148,1.824l3.24,5.856a.6.6,0,0,1,.072.264.5.5,0,0,1-.144.348.47.47,0,0,1-.36.156H48.648a1,1,0,0,1-.984-.648l-2.64-5.208h-2.3V21.4a.564.564,0,0,1-.18.432A.626.626,0,0,1,42.1,22Zm6.576-9.384a2.19,2.19,0,0,0,1.572-.516,1.881,1.881,0,0,0,.54-1.428,2,2,0,0,0-.54-1.464,2.1,2.1,0,0,0-1.572-.552H42.72v3.96ZM55.488,22a.615.615,0,0,1-.6-.6V5.824a.626.626,0,0,1,.168-.444.564.564,0,0,1,.432-.18h6.6a7.7,7.7,0,0,1,4.956,1.44A4.912,4.912,0,0,1,68.832,10.7a5.051,5.051,0,0,1-.78,2.856A5.166,5.166,0,0,1,65.9,15.376l3.24,5.856a.6.6,0,0,1,.072.264.5.5,0,0,1-.144.348.47.47,0,0,1-.36.156H65.328a1,1,0,0,1-.984-.648L61.7,16.144H59.4V21.4a.564.564,0,0,1-.18.432.626.626,0,0,1-.444.168Zm6.576-9.384a2.19,2.19,0,0,0,1.572-.516,1.881,1.881,0,0,0,.54-1.428,2,2,0,0,0-.54-1.464,2.1,2.1,0,0,0-1.572-.552H59.4v3.96ZM72.168,22a.615.615,0,0,1-.6-.6V5.824a.626.626,0,0,1,.168-.444.564.564,0,0,1,.432-.18H83.5a.615.615,0,0,1,.624.624V8.2a.564.564,0,0,1-.18.432A.626.626,0,0,1,83.5,8.8H75.912v3.048h7.056a.615.615,0,0,1,.624.624v2.184a.615.615,0,0,1-.624.624H75.912V18.4h7.776a.615.615,0,0,1,.624.624V21.4a.564.564,0,0,1-.18.432.626.626,0,0,1-.444.168Zm15.408,0a.615.615,0,0,1-.6-.6V5.824a.626.626,0,0,1,.168-.444.564.564,0,0,1,.432-.18h2.712a.878.878,0,0,1,.816.456l5.664,8.952V5.824a.626.626,0,0,1,.168-.444.564.564,0,0,1,.432-.18h3.048a.564.564,0,0,1,.432.18.626.626,0,0,1,.168.444V21.376a.626.626,0,0,1-.168.444.564.564,0,0,1-.432.18H97.7a.878.878,0,0,1-.816-.456l-5.64-8.592V21.4a.564.564,0,0,1-.18.432.626.626,0,0,1-.444.168Z" transform="translate(0 11)" fill="#223843"></path><path id="Path_787" data-name="Path 787" d="M1.872,22a.626.626,0,0,1-.444-.168.564.564,0,0,1-.18-.432V18.232a.615.615,0,0,1,.624-.624H5.04a.564.564,0,0,1,.432.18.626.626,0,0,1,.168.444V21.4a.6.6,0,0,1-.168.42A.564.564,0,0,1,5.04,22Z" transform="translate(103 11)" fill="#2f52e0"></path></g></svg> 