<svg xmlns="http://www.w3.org/2000/svg" width="48" height="36" viewBox="0 0 48 36">
  <path id="iconmonstr-quote-5_4_" data-name="iconmonstr-quote-5 (4)" d="M26,26.45C26,16.168,33.784,5.412,46,3l1.968,4.252c-4.43,1.67-8.326,7.484-8.76,11.492A10.426,10.426,0,0,1,48,29.042C48,35.406,42.832,39,37.6,39,31.572,39,26,34.39,26,26.45Zm-26,0C0,16.168,7.784,5.412,20,3l1.968,4.252c-4.43,1.67-8.326,7.484-8.76,11.492A10.426,10.426,0,0,1,22,29.042C22,35.406,16.832,39,11.6,39,5.572,39,0,34.39,0,26.45Z" transform="translate(0 -3)" fill="#96a8ef"/>
</svg>
