<svg xmlns="http://www.w3.org/2000/svg" width="50" height="50" viewBox="0 0 50 50">
  <g id="Icon" transform="translate(-373 -1111)">
    <g id="devices" transform="translate(373 1111)">
      <path id="Path_725" data-name="Path 725" d="M26.932,32.557a.8.8,0,1,0,0-1.594H1.712a.121.121,0,0,1-.118-.118V1.712a.121.121,0,0,1,.118-.118H40.147a.121.121,0,0,1,.118.118V15.736a.8.8,0,1,0,1.594,0V1.712A1.714,1.714,0,0,0,40.147,0H1.712A1.714,1.714,0,0,0,0,1.712V30.845a1.714,1.714,0,0,0,1.712,1.712H16.075v4.812H9.948a.8.8,0,0,0,0,1.594H26.932a.8.8,0,1,0,0-1.594H25.784V32.557h1.148ZM24.19,37.369H17.669V32.557H24.19Z" fill="#2f52e0"/>
      <path id="Path_726" data-name="Path 726" d="M53.745,240.614H30.8a.8.8,0,1,0,0,1.594H53.745a.8.8,0,1,0,0-1.594Z" transform="translate(-26.813 -215.016)" fill="#2f52e0"/>
      <path id="Path_727" data-name="Path 727" d="M294.9,170.614H277.712A1.714,1.714,0,0,0,276,172.326v28.383a1.714,1.714,0,0,0,1.712,1.712H294.9a1.714,1.714,0,0,0,1.712-1.712V172.326A1.714,1.714,0,0,0,294.9,170.614Zm-17.305,4.781h17.424v19.058H277.594Zm.118-3.187H294.9a.121.121,0,0,1,.118.118V173.8H277.594v-1.475A.121.121,0,0,1,277.712,172.208Zm17.187,28.62H277.712a.121.121,0,0,1-.118-.118v-4.663h17.424v4.663A.121.121,0,0,1,294.9,200.828Z" transform="translate(-246.611 -152.421)" fill="#2f52e0"/>
      <path id="Path_728" data-name="Path 728" d="M354.484,425H351.3a.8.8,0,0,0,0,1.594h3.187a.8.8,0,1,0,0-1.594Z" transform="translate(-313.207 -379.781)" fill="#2f52e0"/>
    </g>
  </g>
</svg>
