<svg xmlns="http://www.w3.org/2000/svg" width="50" height="50" viewBox="0 0 50 50">
  <g id="Icon" transform="translate(-363 -1111)">
    <g id="coding" transform="translate(363 1088.5)">
      <path id="Path_718" data-name="Path 718" d="M76.782,205.849a.8.8,0,0,0-1.094-.277l-9.3,5.538a.8.8,0,0,0,0,1.371l9.3,5.538a.8.8,0,1,0,.817-1.371L68.358,211.8l8.147-4.852A.8.8,0,0,0,76.782,205.849Z" transform="translate(-58.976 -160.635)" fill="#2f52e0"/>
      <path id="Path_719" data-name="Path 719" d="M301.742,217.743a.8.8,0,0,0,1.094.277l9.3-5.538a.8.8,0,0,0,0-1.371l-9.3-5.538a.8.8,0,1,0-.817,1.371l8.147,4.852-8.147,4.852A.8.8,0,0,0,301.742,217.743Z" transform="translate(-269.548 -160.636)" fill="#2f52e0"/>
      <path id="Path_720" data-name="Path 720" d="M200.126,205.813l-7.438,11.076a.8.8,0,1,0,1.325.89l7.438-11.076a.8.8,0,1,0-1.325-.89Z" transform="translate(-172.07 -160.636)" fill="#2f52e0"/>
      <path id="Path_721" data-name="Path 721" d="M49.2,22.5H.8a.843.843,0,0,0-.8.882V71.618a.843.843,0,0,0,.8.882H49.2a.843.843,0,0,0,.8-.882V62.206a.8.8,0,1,0-1.6,0v8.529H1.6V31.324H48.4V58.676a.8.8,0,1,0,1.6,0V23.382A.843.843,0,0,0,49.2,22.5ZM1.6,24.265H31.117v5.294H1.6Zm31.117,5.294V24.265H48.4v5.294Z" fill="#2f52e0"/>
      <path id="Path_722" data-name="Path 722" d="M374.351,52a.851.851,0,1,0,.851.851A.852.852,0,0,0,374.351,52Z" transform="translate(-333.766 -26.361)" fill="#2f52e0"/>
      <path id="Path_723" data-name="Path 723" d="M333.351,52a.851.851,0,1,0,.851.851A.852.852,0,0,0,333.351,52Z" transform="translate(-297.128 -26.361)" fill="#2f52e0"/>
      <path id="Path_724" data-name="Path 724" d="M415.351,52a.851.851,0,1,0,.851.851A.852.852,0,0,0,415.351,52Z" transform="translate(-370.406 -26.361)" fill="#2f52e0"/>
    </g>
  </g>
</svg>
