<svg xmlns="http://www.w3.org/2000/svg" xmlns:xlink="http://www.w3.org/1999/xlink" width="1002" height="327" viewBox="0 0 1002 327">
  <defs>
    <clipPath id="clip-path">
      <rect id="Rectangle_428" data-name="Rectangle 428" width="1002" height="327" rx="6" fill="#3156ef"/>
    </clipPath>
  </defs>
  <g id="Mask_Group_13" data-name="Mask Group 13" clip-path="url(#clip-path)">
    <path id="Path_741" data-name="Path 741" d="M6,0H996a6,6,0,0,1,6,5.993V320.619a6,6,0,0,1-6,5.993H6a6,6,0,0,1-6-5.993V5.993A6,6,0,0,1,6,0Z" fill="#2f52e0"/>
    <path id="Path_739" data-name="Path 739" d="M4036.416,3341.266c203.518-3.106,93.493,166.235,172.709,246.985S3832.9,3344.372,4036.416,3341.266Z" transform="translate(-3129.779 -3366.969)" fill="#3156ef"/>
    <path id="Path_740" data-name="Path 740" d="M3211.858,3735.431c289.669-79.592,268.483-141.391,358.033-85.192s133.866,10.055,205.751,25.9,60.97,30.708,81.788,37.476,9.191,21.411,55.972-12.844,78.837-24.632,78.837-24.632,104.812,16.109,163.835,10.9,28.064,124.738,22.728,127.4S3547.188,3939.3,3539.048,3938.6,2922.189,3815.023,3211.858,3735.431Z" transform="translate(-3169 -3367.311)" fill="#3156ef"/>
    <path id="Path_738" data-name="Path 738" d="M3274.663,3501.232c39.836,182.567-115.611,125.529-101.073,270.565s-106.509-72.612-106.509-72.612S3234.827,3318.666,3274.663,3501.232Z" transform="translate(-3191 -3486.958)" fill="#3156ef"/>
  </g>
</svg>
